# xmcd
#
# Track frame offsets:
#	150
#	19312
#	40935
#	67875
#	93337
#	121555
#	146425
#	173700
#
# Disc length: 2481 seconds
#
# Revision: 1
# Processed by: cddbd v1.5.1PL0 Copyright (c) Steve Scherf et al.
# Submitted via: CDex 1.50Beta5
#
DISCID=5d09af08
DTITLE=マッシュ - MASH
DYEAR=1995
DGENRE=Fusion
TTITLE0=EXOTIC PERFUME
TTITLE1=POREUS
TTITLE2=LOVE
TTITLE3=BLACK SEASON
TTITLE4=NEEDLES OF DANCE
TTITLE5=I SAY TO YOU
TTITLE6=NOB ROCK
TTITLE7=SEE YOU AGAIN
EXTD=
EXTT0=
EXTT1=
EXTT2=
EXTT3=
EXTT4=
EXTT5=
EXTT6=
EXTT7=
PLAYORDER=
